<svg width="637" height="637" viewBox="0 0 637 637" version="1.1" xmlns="http://www.w3.org/2000/svg" xmlns:xlink="http://www.w3.org/1999/xlink">
<title>logo-world</title>
<desc>Created using Figma</desc>
<g id="Canvas" transform="translate(373 1329)">
<g id="logo-world" filter="url(#filter0_d)">
<g id="Ellipse">
<use xlink:href="#path0_fill" transform="translate(-362 -1318)" fill="#FFFFFF"/>
</g>
<g id="world">
<g id="Group">
<g id="Group">
<g id="Vector">
<use xlink:href="#path1_fill" transform="translate(-93.133 -1184.69)"/>
</g>
</g>
</g>
<g id="Group">
<g id="Group">
<g id="Vector">
<use xlink:href="#path2_fill" transform="translate(-246.733 -1252.96)"/>
</g>
</g>
</g>
<g id="Group">
<g id="Group">
<g id="Vector">
<use xlink:href="#path3_fill" transform="translate(-187 -971.359)"/>
</g>
</g>
</g>
<g id="Group">
<g id="Group">
<g id="Vector">
<use xlink:href="#path4_fill" transform="translate(-306.52 -979.973)"/>
</g>
</g>
</g>
<g id="Group">
<g id="Group">
<g id="Vector">
<use xlink:href="#path5_fill" transform="translate(-110.202 -1159.93)"/>
</g>
</g>
</g>
<g id="Group">
<g id="Group">
<g id="Vector">
<use xlink:href="#path6_fill" transform="translate(-315 -1270)"/>
</g>
</g>
</g>
<g id="Group">
<g id="Group">
<g id="Vector">
<use xlink:href="#path7_fill" transform="translate(-314.645 -1191.6)"/>
</g>
</g>
</g>
<g id="Group">
<g id="Group">
<g id="Vector">
<use xlink:href="#path8_fill" transform="translate(-212.6 -1218.83)"/>
</g>
</g>
</g>
<g id="Group">
<g id="Group">
<g id="Vector">
<use xlink:href="#path9_fill" transform="translate(-59 -1150.56)"/>
</g>
</g>
</g>
<g id="Group">
<g id="Group">
<g id="Vector">
<use xlink:href="#path10_fill" transform="translate(-152.866 -937.226)"/>
</g>
</g>
</g>
</g>
</g>
</g>
<defs>
<filter id="filter0_d" filterUnits="userSpaceOnUse" x="-373" y="-1329" width="637" height="637" color-interpolation-filters="sRGB">
<feFlood flood-opacity="0" result="BackgroundImageFix"/>
<feColorMatrix in="SourceAlpha" type="matrix" values="0 0 0 0 0 0 0 0 0 0 0 0 0 0 0 0 0 0 255 0"/>
<feOffset dx="4" dy="4"/>
<feGaussianBlur stdDeviation="7.5"/>
<feColorMatrix type="matrix" values="0 0 0 0 0 0 0 0 0 0 0 0 0 0 0 0 0 0 0.25 0"/>
<feBlend mode="normal" in2="BackgroundImageFix" result="effect1_dropShadow"/>
<feBlend mode="normal" in="SourceGraphic" in2="effect1_dropShadow" result="shape"/>
</filter>
<path id="path0_fill" d="M 607 303.5C 607 471.118 471.118 607 303.5 607C 135.882 607 0 471.118 0 303.5C 0 135.882 135.882 0 303.5 0C 471.118 0 607 135.882 607 303.5Z"/>
<path id="path1_fill" d="M 59.733 -8.54492e-07C 26.794 -8.54492e-07 4.39453e-06 28.322 4.39453e-06 63.147C 4.39453e-06 95.872 48.171 145.519 53.666 151.066C 55.27 152.696 57.455 153.6 59.733 153.6C 62.011 153.6 64.196 152.695 65.8 151.066C 71.287 145.511 119.466 95.872 119.466 63.147C 119.466 28.322 92.672 -8.54492e-07 59.733 -8.54492e-07ZM 59.724 132.676C 41.164 112.546 17.066 80.58 17.066 63.146C 17.066 37.742 36.206 17.066 59.733 17.066C 83.259 17.066 102.4 37.742 102.4 63.146C 102.4 82.218 75.545 115.438 59.724 132.676Z"/>
<path id="path2_fill" d="M 59.733 8.54492e-07C 26.794 8.54492e-07 -1.70898e-06 28.322 -1.70898e-06 63.147C -1.70898e-06 95.872 48.171 145.519 53.666 151.066C 55.27 152.696 57.455 153.6 59.733 153.6C 62.011 153.6 64.196 152.695 65.8 151.066C 71.287 145.511 119.466 95.872 119.466 63.147C 119.466 28.322 92.672 8.54492e-07 59.733 8.54492e-07ZM 59.724 132.676C 41.164 112.546 17.066 80.58 17.066 63.146C 17.066 37.742 36.206 17.066 59.733 17.066C 83.259 17.066 102.4 37.742 102.4 63.146C 102.4 82.219 75.545 115.439 59.724 132.676Z"/>
<path id="path3_fill" d="M 59.733 -8.30078e-06C 26.794 -8.30078e-06 0 28.322 0 63.147C 0 95.872 48.171 145.519 53.666 151.066C 55.27 152.696 57.455 153.6 59.733 153.6C 62.011 153.6 64.196 152.696 65.8 151.066C 71.287 145.511 119.466 95.872 119.466 63.147C 119.467 28.322 92.672 -8.30078e-06 59.733 -8.30078e-06ZM 59.725 132.676C 41.165 112.546 17.067 80.58 17.067 63.146C 17.067 37.742 36.207 17.066 59.734 17.066C 83.26 17.066 102.401 37.742 102.401 63.146C 102.4 82.219 75.546 115.439 59.725 132.676Z"/>
<path id="path4_fill" d="M 200.297 133.141C 198.761 131.016 196.346 129.711 193.726 129.591C 191.004 129.471 188.58 130.581 186.874 132.569C 184.024 135.897 181.404 138.832 179.237 141.205C 170.396 131.511 153.978 112.431 144.191 94.3482C 143.278 92.6672 141.819 91.3362 140.052 90.5762L 123.224 83.3572C 108.47 77.0342 102.445 67.6982 102.445 51.1272L 102.445 34.2052C 102.445 21.8402 97.5731 11.6512 88.7231 5.50716C 80.3771 -0.269836 69.2071 -1.60982 59.5561 2.00018L 5.5401 22.2592C 1.4181 23.7952 -0.842895 28.2152 0.292105 32.4562C 25.3461 125.777 102.718 198.207 197.404 216.998C 197.967 217.118 198.522 217.169 199.076 217.169C 202.814 217.169 206.21 214.703 207.268 210.957L 211.381 196.544C 217.602 174.766 213.566 151.658 200.297 133.141ZM 194.989 191.876L 193.06 198.609C 110.705 179.358 43.5471 116.459 18.9121 35.4772L 65.5721 17.9842C 70.0611 16.2942 75.2151 16.8922 79.0201 19.5462C 83.2011 22.4392 85.4031 27.5162 85.4031 34.2152L 85.4031 51.1282C 85.4031 74.3982 95.5831 90.0742 116.524 99.0432L 130.672 105.11C 145.938 131.939 172.059 158.512 173.194 159.672C 174.798 161.293 176.983 162.206 179.261 162.206C 179.27 162.206 179.27 162.206 179.27 162.206C 181.548 162.206 183.733 161.284 185.337 159.655C 185.499 159.493 188.059 156.89 191.967 152.598C 197.626 164.851 198.761 178.683 194.989 191.876Z"/>
<path id="path5_fill" d="M 282.08 35.3752C 280.749 32.6102 278.035 30.7672 274.98 30.5542C 271.899 30.4342 268.981 31.7833 267.283 34.3433C 260.328 44.7963 251.863 56.0522 242.11 67.8192C 237.144 73.8092 229.822 77.2402 222.014 77.2402C 222.005 77.2402 221.997 77.2402 221.988 77.2402C 214.018 77.2312 206.517 73.6902 201.414 67.5292C 186.455 49.4212 174.722 32.7902 166.555 18.0702C 157.945 2.55624 138.847 -4.08275 122.165 2.57325C 120.996 3.04225 119.887 3.59724 118.777 4.16024L 117.966 4.57025C 115.927 5.58525 114.365 7.37725 113.648 9.54525C 112.931 11.7132 113.119 14.0852 114.16 16.1162C 117.642 22.9002 119.476 30.5972 119.476 38.3792C 119.476 57.4422 92.6636 90.6292 76.8346 107.874C 65.9376 95.9272 43.4606 69.6623 36.2676 48.7983C 35.1326 45.4963 32.0946 43.2262 28.6046 43.0552C 25.2506 42.7902 21.8716 44.8642 20.4296 48.0472C 12.3746 65.7542 2.79959 88.8702 0.248594 110.784C -0.596406 118.063 0.743597 125.461 3.7986 131.503L 15.1476 160.363C 19.5166 169.11 26.2576 176.517 34.6296 181.807C 44.7506 188.198 58.7536 198.191 67.9946 209.455C 73.7036 216.427 84.7536 222.332 100.84 227.034C 106.83 228.783 111.123 234.117 111.524 240.295C 114.408 284.72 125.467 307.504 144.394 308.033C 145.35 308.152 147.014 308.315 149.198 308.315C 155.581 308.315 166.418 306.924 177.017 299.133C 192.121 288.048 201.456 268.259 204.776 240.338C 205.962 230.363 207.507 218.629 210.092 206.964L 221.04 147.999L 233.627 162.796C 238.244 170.092 245.702 175.212 254.201 176.867C 262.956 178.616 272.061 176.5 279.195 171.15L 303.788 152.709C 305.938 151.096 307.201 148.562 307.201 145.882C 307.202 107.294 298.754 70.1062 282.08 35.3752ZM 268.973 157.521C 265.654 160.013 261.583 160.943 257.504 160.149C 253.434 159.347 250.02 156.949 247.887 153.391C 247.648 152.99 247.375 152.606 247.068 152.256L 232.954 135.659C 229.583 130.65 223.661 128.107 217.654 129.046C 211.356 130.07 206.399 134.746 204.956 141.266L 193.385 203.585C 190.697 215.702 189.076 227.956 187.838 238.35C 185.167 260.861 178.033 277.057 167.213 285.181C 157.144 292.75 146.998 291.18 146.656 291.129C 146.135 291.027 145.606 290.975 145.077 290.975C 138.737 290.975 130.869 274.77 128.556 239.195C 127.686 225.883 118.478 214.406 105.618 210.651C 88.3116 205.599 82.7736 200.573 81.1866 198.645C 70.4946 185.615 54.9206 174.444 43.7336 167.379C 37.9906 163.752 33.3826 158.684 30.7206 153.436L 19.3716 124.576C 17.4856 120.813 16.7346 116.725 17.1956 112.766C 18.7486 99.4712 23.3826 85.2722 28.5536 72.3262C 43.8456 98.9412 69.4116 124.977 70.7596 126.316C 72.3636 127.937 74.5486 128.85 76.8266 128.85C 79.1046 128.85 81.2896 127.937 82.8936 126.316C 88.3806 120.761 136.56 71.1222 136.56 38.3973C 136.56 31.1783 135.382 24.0102 133.113 17.2432C 140.528 16.2792 147.978 19.7432 151.656 26.3742C 160.334 41.9992 172.657 59.5172 188.29 78.4272C 196.636 88.5132 208.924 94.3162 221.997 94.3252C 222.006 94.3252 222.023 94.3252 222.031 94.3252C 234.933 94.3252 247.051 88.6502 255.268 78.7352C 261.625 71.0722 267.462 63.5972 272.736 56.3862C 283.77 83.5392 289.606 112.143 290.118 141.668L 268.973 157.521Z"/>
<path id="path6_fill" d="M 256 2.68221e-10C 221.184 2.68221e-10 187.392 6.886 155.554 20.471C 155.008 20.71 154.487 21 154.001 21.341L 148.019 25.539C 145.647 27.194 144.29 29.942 144.392 32.835C 144.494 35.728 146.065 38.365 148.548 39.849C 162.193 47.973 170.666 63.435 170.666 80.203C 170.666 99.266 143.829 132.47 128.008 149.716C 113.535 133.895 89.062 103.79 85.734 84.112C 85.248 81.228 83.311 78.796 80.614 77.661C 77.917 76.535 74.82 76.867 72.422 78.548L 70.511 79.888C 70.025 80.221 69.581 80.605 69.18 81.04C 24.567 128.657 0 190.78 0 255.974C 0 397.132 114.842 511.974 256 511.974C 397.158 511.974 512 397.158 512 256C 512 114.842 397.158 2.68221e-10 256 2.68221e-10ZM 256 494.908C 124.254 494.908 17.067 387.721 17.067 255.975C 17.067 199.203 37.035 144.922 73.541 101.803C 86.665 132.199 120.278 166.434 121.934 168.107C 123.538 169.728 125.723 170.641 128.001 170.641C 130.279 170.641 132.464 169.728 134.068 168.107C 139.555 162.552 187.734 112.913 187.734 80.188C 187.734 62.319 180.532 45.474 168.338 33.647C 196.258 22.622 225.715 17.041 256 17.041C 387.746 17.041 494.933 124.228 494.933 255.974C 494.933 387.72 387.746 494.908 256 494.908Z"/>
<path id="path7_fill" d="M 120.144 62.7767C 104.161 44.1737 92.675 26.8427 87.786 13.9657C 87.598 13.4967 87.376 13.0437 87.12 12.6087C 85.533 9.96367 84.022 7.31767 82.691 4.68967C 81.445 2.20667 79.047 0.491674 76.291 0.0906736C 73.509 -0.319326 70.753 0.679677 68.85 2.71068C 27.626 46.7177 3.17804 103.942 0.0120362 163.855C -0.141964 166.748 1.19004 169.521 3.53604 171.219C 5.01204 172.286 6.76204 172.832 8.53604 172.832C 9.58604 172.832 10.627 172.644 11.642 172.252L 81.385 144.723C 96.771 138.588 104.707 121.461 99.467 105.743C 97.752 100.589 99.066 94.9907 102.906 91.1507L 119.7 74.3657C 122.858 71.2167 123.054 66.1557 120.144 62.7767ZM 90.824 79.0757C 82.384 87.5237 79.492 99.8117 83.263 111.136C 85.652 118.287 82.043 126.078 75.037 128.868L 18.145 151.404C 23.316 104.394 42.525 59.7557 73.219 23.4637C 79.798 38.7807 91.642 55.0887 102.087 67.8287L 90.824 79.0757Z"/>
<path id="path8_fill" d="M 34.099 2.74658e-07L 17.092 2.74658e-07C 7.671 2.74658e-07 1.52588e-06 7.671 1.52588e-06 17.092L 1.52588e-06 34.107C 1.52588e-06 43.536 7.671 51.199 17.092 51.199L 34.099 51.199C 43.528 51.199 51.2 43.536 51.191 34.107L 51.191 17.093C 51.191 7.663 43.52 2.74658e-07 34.099 2.74658e-07ZM 34.125 34.134L 17.067 34.108L 17.093 17.067L 34.134 17.093L 34.125 34.134Z"/>
<path id="path9_fill" d="M 34.099 2.38037e-06L 17.092 2.38037e-06C 7.67101 2.38037e-06 0 7.67101 0 17.092L 0 34.107C 0 43.536 7.67101 51.199 17.092 51.199L 34.099 51.199C 43.528 51.199 51.2 43.536 51.191 34.107L 51.191 17.092C 51.191 7.663 43.52 2.38037e-06 34.099 2.38037e-06ZM 34.125 34.133L 17.067 34.107L 17.093 17.066L 34.134 17.092L 34.125 34.133Z"/>
<path id="path10_fill" d="M 34.099 -1.26953e-05L 17.092 -1.26953e-05C 7.671 -1.26953e-05 2.68555e-06 7.671 2.68555e-06 17.092L 2.68555e-06 34.108C 2.68555e-06 43.537 7.671 51.2 17.092 51.2L 34.099 51.2C 43.528 51.2 51.2 43.537 51.191 34.108L 51.191 17.092C 51.191 7.663 43.519 -1.26953e-05 34.099 -1.26953e-05ZM 34.124 34.134L 17.066 34.108L 17.092 17.067L 34.133 17.093L 34.124 34.134Z"/>
</defs>
</svg>
