<svg width="40" height="40" xmlns="http://www.w3.org/2000/svg">

 <g>
  <title>background</title>
  <rect fill="none" id="canvas_background" height="42" width="42" y="-1" x="-1"/>
 </g>
 <g>
  <title>Layer 1</title>
  <g stroke="null" id="svg_1">
   <path stroke="null" id="svg_2" fill="#e74c3c" d="m20,17.533334c2.380333,0 4.316667,-1.93695 4.316667,-4.316667s-1.936333,-4.316667 -4.316667,-4.316667s-4.316667,1.93695 -4.316667,4.316667s1.936333,4.316667 4.316667,4.316667zm0,-7.4c1.70015,0 3.083333,1.383183 3.083333,3.083333s-1.383183,3.083333 -3.083333,3.083333s-3.083333,-1.383183 -3.083333,-3.083333s1.383183,-3.083333 3.083333,-3.083333z"/>
   <path stroke="null" id="svg_3" fill="#e74c3c" d="m19.89085,35.266817l9.460283,-13.663484c3.5483,-4.73045 3.035233,-12.506 -1.098283,-16.6389c-2.233567,-2.234183 -5.203433,-3.464433 -8.362,-3.464433s-6.128433,1.23025 -8.362,3.463817c-4.133517,4.1329 -4.646583,11.90845 -1.112467,16.6204l9.474467,13.6826zm-7.490033,-29.431034c2.001083,-2.000467 4.660767,-3.10245 7.490033,-3.10245s5.48895,1.101983 7.490033,3.10245c3.730833,3.730217 4.19025,10.752817 0.970017,15.04605l-8.46005,12.218017l-8.473617,-12.236517c-3.206667,-4.274733 -2.746633,-11.297333 0.983583,-15.02755z"/>
   <path stroke="null" id="svg_4" fill="#e74c3c" d="m27.47215,28.020984c-0.339167,-0.041317 -0.645033,0.20165 -0.6845,0.5402s0.202267,0.645033 0.5402,0.6845c6.484867,0.763433 9.938817,2.820633 9.938817,4.01265c0,1.673633 -6.568733,4.008333 -17.266667,4.008333s-17.266667,-2.3347 -17.266667,-4.008333c0,-1.192017 3.45395,-3.249217 9.938817,-4.01265c0.337933,-0.039467 0.579667,-0.346567 0.5402,-0.6845c-0.040083,-0.33855 -0.34595,-0.58275 -0.6845,-0.5402c-6.492883,0.764667 -11.02785,2.918067 -11.02785,5.23735c0,2.6048 6.35475,5.241667 18.5,5.241667s18.5,-2.636867 18.5,-5.241667c0,-2.319283 -4.534967,-4.472683 -11.02785,-5.23735z"/>
  </g>
  <g id="svg_5"/>
  <g id="svg_6"/>
  <g id="svg_7"/>
  <g id="svg_8"/>
  <g id="svg_9"/>
  <g id="svg_10"/>
  <g id="svg_11"/>
  <g id="svg_12"/>
  <g id="svg_13"/>
  <g id="svg_14"/>
  <g id="svg_15"/>
  <g id="svg_16"/>
  <g id="svg_17"/>
  <g id="svg_18"/>
  <g id="svg_19"/>
 </g>
</svg>