<svg width="40" height="40" xmlns="http://www.w3.org/2000/svg">

 <g>
  <title>background</title>
  <rect fill="none" id="canvas_background" height="42" width="42" y="-1" x="-1"/>
 </g>
 <g>
  <title>Layer 1</title>
  <g stroke="null" id="svg_1">
   <path stroke="null" id="svg_2" fill="#263238" d="m20.108953,10.636399c-2.349653,0 -4.262133,1.91248 -4.262133,4.262133s1.91248,4.262133 4.262133,4.262133s4.262133,-1.91248 4.262133,-4.262133s-1.91248,-4.262133 -4.262133,-4.262133zm0,7.306513c-1.678671,0 -3.044381,-1.365709 -3.044381,-3.044381s1.365709,-3.044381 3.044381,-3.044381s3.044381,1.365709 3.044381,3.044381s-1.365709,3.044381 -3.044381,3.044381z"/>
   <path stroke="null" id="svg_3" fill="#263238" d="m28.257542,6.749943c-2.205349,-2.205349 -5.137697,-3.420057 -8.25636,-3.420057c-3.119272,0 -6.051011,1.214708 -8.25636,3.420057c-4.081297,4.080688 -4.58849,11.758615 -1.098413,16.410429l9.354773,13.509743l9.340768,-13.490868c3.504082,-4.670689 2.996888,-12.348616 -1.084408,-16.429304zm0.096811,15.717528l-8.353171,12.063053l-8.366567,-12.081929c-3.165547,-4.220729 -2.711934,-11.15461 0.971766,-14.837702c1.975194,-1.975194 4.601277,-3.063256 7.3948,-3.063256s5.419606,1.088062 7.395409,3.063256c3.6837,3.683092 4.137313,10.616973 0.957762,14.856577z"/>
  </g>
  <g id="svg_4"/>
  <g id="svg_5"/>
  <g id="svg_6"/>
  <g id="svg_7"/>
  <g id="svg_8"/>
  <g id="svg_9"/>
  <g id="svg_10"/>
  <g id="svg_11"/>
  <g id="svg_12"/>
  <g id="svg_13"/>
  <g id="svg_14"/>
  <g id="svg_15"/>
  <g id="svg_16"/>
  <g id="svg_17"/>
  <g id="svg_18"/>
 </g>
</svg>